<svg xmlns="http://www.w3.org/2000/svg" viewBox="0 0 64 64" width="64" height="64">
  <defs>
    <linearGradient id="ai-gradient" x1="0%" y1="0%" x2="100%" y2="100%">
      <stop offset="0%" style="stop-color:#2563eb;stop-opacity:1" /> <stop offset="100%" style="stop-color:#9333ea;stop-opacity:1" /> </linearGradient>
  </defs>
  
  <path d="M32 4 C14.327 4 0 16.536 0 32 C0 41.65 5.213 50.256 13.333 55.467 C12.573 59.787 10.667 62.933 10.56 63.107 A 1.067 1.067 0 0 0 11.68 64.8 C 17.307 63.293 21.773 59.88 24.653 57.373 C 27.027 57.787 29.48 58 32 58 C 49.673 58 64 45.464 64 30 C 64 14.536 49.673 4 32 4 Z" fill="url(#ai-gradient)"/>
  
  <path d="M32 16 L 35.5 26.5 L 46 30 L 35.5 33.5 L 32 44 L 28.5 33.5 L 18 30 L 28.5 26.5 Z" fill="white"/>
</svg>